# xmcd CD database file
#
# Track frame offsets:
#	150
#	22434
#	43598
#	64209
#	86948
#	117516
#	143806
#	158617
#	178374
#	207669
#	223674
#	236802
#	247096
#	260997
#	274380
#
# Disc length: 3836 seconds
#
# Revision: 0
# Processed by: cddbd v1.5.2PL0 Copyright (c) Steve Scherf et al.
# Submitted via: CDex 1.51
#
DISCID=030efa0f
DTITLE=Various Artist - Salsa: The Essential Album
DYEAR=2003
DGENRE=Salsa
TTITLE0=Oxigeno
TTITLE1=José "El Canario" Alberto - Me Dejo Picao
TTITLE2=José "El Canario" Alberto - Mopao
TTITLE3=Albita - Manisero
TTITLE4=Rubén González - Choco's Guajira
TTITLE5=Manu Dibango, Cuarteto Patria - Carnaval
TTITLE6=Nava - Mujer Boricua
TTITLE7=Orishas - 537 C.U.B.A.
TTITLE8=Tito Puente - Oye Como Va [Live]
TTITLE9=Orquesta Broadway - Como Camina Maria
TTITLE10=Celia Cruz and la Sonora Matancera - Yerbero Moderno
TTITLE11=Beny Moré - Yiri Yiri Bon
TTITLE12=Machito - Escucha Mi Encanto
TTITLE13=Ismael Rivera - Chivo de la Campana
TTITLE14=Eddie Palmieri - Sabroso Guaguanco
EXTD=YEAR: 2003
EXTT0=
EXTT1=
EXTT2=
EXTT3=
EXTT4=
EXTT5=
EXTT6=
EXTT7=
EXTT8=
EXTT9=
EXTT10=
EXTT11=
EXTT12=
EXTT13=
EXTT14=
PLAYORDER=
